<svg id="Layer_1" xmlns="http://www.w3.org/2000/svg" viewBox="0 0 607 585"><style>.st0,.st1{fill:#313232}.st1{fill-rule:evenodd;clip-rule:evenodd}</style><path class="st0" d="M151.2 313.2c-1.6 0-3.1.3-4.3 1-1.3.7-2.3 1.6-3.2 2.7v-10.8h-3.5v27.4h3.3V330c.8 1.2 1.9 2.2 3.2 2.9 1.3.7 2.8 1 4.5 1 2 0 3.7-.5 5.2-1.4 1.5-.9 2.7-2.2 3.6-3.7.8-1.6 1.3-3.4 1.3-5.3s-.4-3.7-1.3-5.3c-.8-1.6-2-2.8-3.6-3.7-1.5-.9-3.2-1.3-5.2-1.3zm-.4 17.5c-1.3 0-2.5-.3-3.6-.9-1.1-.6-1.9-1.4-2.6-2.5-.6-1.1-.9-2.3-.9-3.7 0-1.4.3-2.7.9-3.7.6-1.1 1.5-1.9 2.6-2.5 1.1-.6 2.3-.9 3.6-.9 1.3 0 2.5.3 3.5.9 1.1.6 1.9 1.5 2.5 2.6.6 1.1.9 2.3.9 3.7 0 1.4-.3 2.6-.9 3.7-.6 1.1-1.4 1.9-2.5 2.5-1 .5-2.2.8-3.5.8zm34.7-7.1c0-1.9-.4-3.7-1.2-5.3-.8-1.6-2-2.8-3.6-3.8-1.6-.9-3.4-1.4-5.4-1.4-2.1 0-3.9.5-5.4 1.4-1.6.9-2.8 2.2-3.6 3.7-.8 1.6-1.3 3.4-1.3 5.3 0 2 .4 3.8 1.3 5.3.9 1.6 2.1 2.8 3.7 3.7 1.6.9 3.6 1.3 5.8 1.3 2 0 3.7-.3 5.1-.9 1.4-.6 2.5-1.3 3.3-2.2l-1.9-2.3c-1 .8-2.1 1.4-3.1 1.8-1 .3-2.2.5-3.4.5-2 0-3.6-.5-4.9-1.6-1.3-1.1-2-2.5-2.3-4.3h16.8c.1-.5.1-.9.1-1.2zm-10.2-7.3c1.8 0 3.3.5 4.5 1.5 1.2 1 1.9 2.4 2.1 4h-13.3c.3-1.7 1.1-3.1 2.2-4.1 1.2-.9 2.7-1.4 4.5-1.4zm29.4-2.7l-7 16.6-7-16.6H187l8.6 19.8h4.2l8.6-19.8h-3.7zm25.8 10c0-1.9-.4-3.7-1.2-5.3-.8-1.6-2-2.8-3.6-3.8-1.6-.9-3.4-1.4-5.4-1.4-2.1 0-3.9.5-5.4 1.4-1.6.9-2.8 2.2-3.6 3.7-.8 1.6-1.3 3.4-1.3 5.3 0 2 .4 3.8 1.3 5.3.9 1.6 2.1 2.8 3.7 3.7 1.6.9 3.6 1.3 5.8 1.3 2 0 3.7-.3 5.1-.9 1.4-.6 2.5-1.3 3.3-2.2l-1.9-2.3c-1 .8-2.1 1.4-3.1 1.8-1 .3-2.2.5-3.4.5-2 0-3.6-.5-4.9-1.6-1.3-1.1-2-2.5-2.3-4.3h16.8c.1-.5.1-.9.1-1.2zm-10.2-7.3c1.8 0 3.3.5 4.5 1.5 1.2 1 1.9 2.4 2.1 4h-13.3c.3-1.7 1.1-3.1 2.2-4.1 1.2-.9 2.7-1.4 4.5-1.4zm24.9-3c-1.3 0-2.6.3-3.9.8-1.3.5-2.3 1.3-3 2.4v-2.9H235v19.8h3.5v-11c0-1.8.6-3.3 1.9-4.3 1.2-1 2.9-1.5 4.9-1.5.7 0 1.4.1 2.1.2v-3.3c-.7-.1-1.4-.2-2.2-.2zm24.9 17.4c-.6 0-1-.1-1.2-.4-.3-.3-.4-.7-.4-1.1v-8.5c0-2.4-.8-4.2-2.3-5.5-1.5-1.3-3.7-1.9-6.4-1.9-1.6 0-3.2.2-4.7.7-1.6.4-2.9 1.1-4 1.9l1.7 2.6c1-.7 2.1-1.2 3.3-1.5 1.2-.3 2.3-.5 3.4-.5 1.8 0 3.1.4 4.1 1.2.9.8 1.4 2 1.4 3.6v.1c-5.2 0-9.1.6-11.6 1.7s-3.7 2.8-3.7 5.2c0 1.8.7 3.3 2.1 4.3 1.4 1 3.2 1.5 5.4 1.5 1.7 0 3.2-.3 4.7-.9 1.4-.6 2.6-1.5 3.5-2.7.1 1 .5 1.9 1.3 2.4.7.6 1.7.9 2.8.9.7 0 1.4-.1 2-.4v-2.8c-.5 0-1 .1-1.4.1zm-12.4.1c-1.4 0-2.5-.3-3.3-.8-.8-.5-1.2-1.2-1.2-2.1 0-1.3.9-2.2 2.7-2.8 1.8-.6 4.8-.9 9-1v.9c0 1.4-.4 2.6-1.1 3.5-.8.9-1.7 1.5-2.8 1.8-1.1.3-2.2.5-3.3.5zm32.9-17.2v3.1c-.8-1.1-1.9-2-3.1-2.7-1.3-.6-2.7-.9-4.3-.9-1.9 0-3.6.4-5.2 1.3-1.5.9-2.7 2-3.5 3.5-.8 1.5-1.3 3.1-1.3 5 0 1.8.4 3.5 1.3 5 .8 1.5 2 2.6 3.5 3.5 1.5.9 3.2 1.3 5.2 1.3 1.6 0 2.9-.3 4.2-.9 1.2-.6 2.3-1.4 3.1-2.5v2.6c0 1.6-.6 2.9-1.9 3.9-1.3 1-2.9 1.5-5 1.5-2.7 0-5.2-.6-7.4-1.7l-1.1 3c1.2.7 2.5 1.1 4 1.4 1.5.3 3 .4 4.5.4 2 0 3.8-.3 5.4-1s2.8-1.6 3.6-2.9c.9-1.3 1.3-2.7 1.3-4.4v-18.4h-3.3v-.1zm-7 16c-1.3 0-2.4-.3-3.5-.9-1-.6-1.8-1.4-2.4-2.4-.6-1-.9-2.2-.9-3.4 0-1.3.3-2.4.9-3.4.6-1 1.4-1.8 2.4-2.3 1-.6 2.2-.8 3.5-.8 1.3 0 2.4.3 3.5.8s1.9 1.3 2.5 2.3c.6 1 .9 2.2.9 3.5 0 1.3-.3 2.5-.9 3.5-.6 1-1.5 1.8-2.5 2.3-1.1.5-2.2.8-3.5.8zm35.9-6c0-1.9-.4-3.7-1.2-5.3-.8-1.6-2-2.8-3.6-3.8-1.6-.9-3.4-1.4-5.4-1.4-2.1 0-3.9.5-5.4 1.4-1.6.9-2.8 2.2-3.6 3.7-.9 1.6-1.3 3.4-1.3 5.3 0 2 .4 3.8 1.3 5.3.9 1.6 2.1 2.8 3.7 3.7 1.6.9 3.6 1.3 5.8 1.3 2 0 3.7-.3 5.1-.9 1.4-.6 2.5-1.3 3.3-2.2l-1.9-2.3c-1 .8-2.1 1.4-3.1 1.8-1 .3-2.2.5-3.4.5-2 0-3.6-.5-4.9-1.6-1.3-1.1-2-2.5-2.3-4.3h16.8c.1-.5.1-.9.1-1.2zm-10.2-7.3c1.8 0 3.3.5 4.5 1.5 1.2 1 1.9 2.4 2.1 4h-13.3c.3-1.7 1.1-3.1 2.2-4.1 1.2-.9 2.7-1.4 4.5-1.4zm15.3 11.7l-1.7 2.7c1 .9 2.3 1.7 4.1 2.3 1.8.6 3.6.9 5.5.9 2.6 0 4.6-.6 6.1-1.7s2.2-2.6 2.2-4.5c0-1.4-.4-2.6-1.3-3.5-.9-.9-2.2-1.5-4-1.9l-5.5-1c-1-.2-1.8-.5-2.3-.8-.5-.4-.7-.8-.7-1.5 0-.8.4-1.5 1.3-2s2.1-.8 3.6-.8c1.3 0 2.5.2 3.7.5 1.2.4 2.3.9 3.2 1.6l1.7-2.7c-1.3-.9-2.6-1.6-4-2-1.4-.4-2.8-.5-4.4-.5-2.8 0-4.9.6-6.4 1.7s-2.2 2.5-2.2 4.3c0 1.4.4 2.5 1.3 3.4.9.9 2.2 1.5 3.9 1.8l5.4 1c1.1.2 1.9.5 2.4.8.5.4.8.9.8 1.5 0 .9-.4 1.6-1.3 2.1-.8.5-2 .8-3.5.8-1.3 0-2.6-.2-4-.6-1.4-.2-2.7-.9-3.9-1.9zm37.3-19.3c1 0 2.1.1 3.1.4V306c-.9-.3-2-.5-3.3-.5-2.4 0-4.1.6-5.3 1.7-1.2 1.1-1.7 2.7-1.7 4.5v1.7h-3.4v3h3.4v16.8h3.5v-16.8h5.6v-3h-5.6v-1.5c-.1-2.1 1.2-3.2 3.7-3.2zm13.2 25.2c2.1 0 3.9-.5 5.5-1.4 1.6-.9 2.9-2.2 3.8-3.7.9-1.6 1.3-3.3 1.3-5.3 0-1.9-.4-3.7-1.3-5.3-.9-1.6-2.2-2.8-3.8-3.7-1.6-.9-3.5-1.4-5.5-1.4-2.1 0-3.9.5-5.5 1.4-1.6.9-2.9 2.2-3.8 3.7-.9 1.6-1.3 3.3-1.3 5.3 0 1.9.4 3.7 1.3 5.3.9 1.6 2.2 2.8 3.8 3.7 1.6 1 3.4 1.4 5.5 1.4zm0-3.2c-1.3 0-2.5-.3-3.6-.9-1.1-.6-1.9-1.5-2.5-2.6-.6-1.1-.9-2.3-.9-3.7 0-1.4.3-2.6.9-3.7.6-1.1 1.5-1.9 2.5-2.6 1.1-.6 2.3-.9 3.6-.9 1.3 0 2.5.3 3.6.9 1.1.6 1.9 1.5 2.5 2.6.6 1.1.9 2.3.9 3.7 0 1.4-.3 2.6-.9 3.7-.6 1.1-1.4 2-2.5 2.6-1.1.6-2.3.9-3.6.9zm25.9-17.4c-1.3 0-2.6.3-3.9.8-1.3.5-2.3 1.3-3 2.4v-2.9h-3.3v19.8h3.5v-11c0-1.8.6-3.3 1.9-4.3 1.2-1 2.9-1.5 4.9-1.5.7 0 1.4.1 2.1.2v-3.3c-.8-.1-1.5-.2-2.2-.2zm13.5-7.2v23.4c0 1.4.4 2.5 1.3 3.3.9.8 2 1.2 3.4 1.2.4 0 .8 0 1.2-.1.3 0 .7-.2 1.1-.3v-3.1c-.4.2-.9.3-1.5.3s-1.1-.2-1.5-.5c-.4-.3-.5-.8-.5-1.5v-22.7h-3.5zm12.5 4.5c.7 0 1.2-.2 1.6-.6.4-.4.6-.9.6-1.6 0-.6-.2-1.2-.6-1.6-.4-.4-1-.6-1.6-.6-.6 0-1.2.2-1.6.6-.4.4-.7.9-.7 1.6 0 .6.2 1.2.7 1.6.5.4 1 .6 1.6.6zm-1.7 3v19.8h3.5v-19.8h-3.5zm18.3-4.9c1 0 2.1.1 3.1.4V306c-.9-.3-2-.5-3.3-.5-2.4 0-4.1.6-5.3 1.7-1.2 1.1-1.7 2.7-1.7 4.5v1.7H433v3h3.4v16.8h3.5v-16.8h5.6v-3h-5.6v-1.5c0-2.1 1.2-3.2 3.7-3.2zm23.2 14.9c0-1.9-.4-3.7-1.2-5.3-.8-1.6-2-2.8-3.6-3.8-1.6-.9-3.4-1.4-5.4-1.4s-3.9.5-5.4 1.4c-1.6.9-2.8 2.2-3.6 3.7-.8 1.6-1.3 3.4-1.3 5.3 0 2 .4 3.8 1.3 5.3.9 1.6 2.1 2.8 3.7 3.7 1.6.9 3.6 1.3 5.8 1.3 2 0 3.7-.3 5.1-.9 1.4-.6 2.5-1.3 3.3-2.2l-1.9-2.3c-1 .8-2.1 1.4-3.1 1.8-1 .3-2.2.5-3.4.5-2 0-3.6-.5-4.9-1.6-1.3-1.1-2-2.5-2.3-4.3h16.8c.1-.5.1-.9.1-1.2zm-10.2-7.3c1.8 0 3.3.5 4.5 1.5 1.2 1 1.9 2.4 2.1 4h-13.3c.3-1.7 1.1-3.1 2.2-4.1 1.2-.9 2.7-1.4 4.5-1.4zm-355.8-37.6c0-2.9.7-5.5 2-7.8s3.2-4.1 5.6-5.4c2.4-1.3 5.1-1.9 8.2-1.9 2.5 0 4.8.4 6.8 1.2 2 .8 3.7 1.9 5.1 3.5l-3.7 4.4c-1.4-1.2-2.7-2-3.9-2.5-1.3-.5-2.7-.7-4.2-.7-1.8 0-3.4.4-4.8 1.2-1.4.8-2.5 1.9-3.3 3.3-.8 1.4-1.2 3-1.2 4.9 0 1.8.4 3.4 1.2 4.9.8 1.4 1.9 2.5 3.3 3.3 1.4.8 3 1.2 4.8 1.2 1.6 0 3.1-.3 4.4-.8 1.3-.5 2.6-1.4 4-2.6l3.7 4.4c-1.4 1.6-3.1 2.8-5.1 3.6-2 .8-4.4 1.2-7 1.2-3.1 0-5.8-.6-8.2-1.9-2.4-1.3-4.3-3.1-5.6-5.4-1.4-2.5-2.1-5.1-2.1-8.1zm46.4 15.2c3 0 5.7-.6 8.1-1.9 2.4-1.3 4.2-3.1 5.5-5.4 1.3-2.3 2-4.9 2-7.8s-.7-5.5-2-7.8-3.2-4.1-5.5-5.4c-2.4-1.3-5.1-1.9-8.1-1.9s-5.7.6-8.1 1.9c-2.4 1.3-4.2 3.1-5.5 5.4-1.3 2.3-2 4.9-2 7.8s.7 5.5 2 7.8 3.2 4.1 5.5 5.4c2.4 1.3 5.1 1.9 8.1 1.9zm0-5.8c-1.8 0-3.3-.4-4.7-1.2-1.4-.8-2.4-1.9-3.2-3.3-.8-1.4-1.2-3-1.2-4.9 0-1.8.4-3.4 1.2-4.9.8-1.4 1.8-2.5 3.2-3.3 1.4-.8 2.9-1.2 4.7-1.2 1.8 0 3.3.4 4.7 1.2 1.4.8 2.4 1.9 3.2 3.3.8 1.4 1.2 3 1.2 4.9 0 1.8-.4 3.4-1.2 4.9-.8 1.4-1.8 2.5-3.2 3.3-1.4.8-3 1.2-4.7 1.2zm19.6-9.4c0-2.9.7-5.5 2-7.8s3.2-4.1 5.6-5.4c2.4-1.3 5.1-1.9 8.2-1.9 2.5 0 4.8.4 6.8 1.2 2 .8 3.7 1.9 5.1 3.5l-3.7 4.4c-1.4-1.2-2.7-2-3.9-2.5-1.3-.5-2.7-.7-4.2-.7-1.8 0-3.4.4-4.8 1.2-1.4.8-2.5 1.9-3.3 3.3-.8 1.4-1.2 3-1.2 4.9 0 1.8.4 3.4 1.2 4.9.8 1.4 1.9 2.5 3.3 3.3 1.4.8 3 1.2 4.8 1.2 1.6 0 3.1-.3 4.4-.8 1.3-.5 2.6-1.4 4-2.6l3.7 4.4c-1.4 1.6-3.1 2.8-5.1 3.6-2 .8-4.4 1.2-7 1.2-3.1 0-5.8-.6-8.2-1.9-2.4-1.3-4.3-3.1-5.6-5.4-1.4-2.5-2.1-5.1-2.1-8.1zm53.1 14.7h6.6L215 264.2h-7.8l-11.5 29.2h6.5l2.5-6.5h12.7l2.5 6.5zm-13.1-12.1l4.3-11.2 4.2 11.2h-8.5zm22.3-3.4l-.8 5.7h12.9l.8-5.7h-12.9zm16.5.8c0-2.9.7-5.5 2-7.8s3.2-4.1 5.6-5.4c2.4-1.3 5.1-1.9 8.2-1.9 2.5 0 4.8.4 6.8 1.2 2 .8 3.7 1.9 5.1 3.5l-3.7 4.4c-1.4-1.2-2.7-2-3.9-2.5-1.3-.5-2.7-.7-4.2-.7-1.8 0-3.4.4-4.8 1.2-1.4.8-2.5 1.9-3.3 3.3-.8 1.4-1.2 3-1.2 4.9 0 1.8.4 3.4 1.2 4.9.8 1.4 1.9 2.5 3.3 3.3 1.4.8 3 1.2 4.8 1.2 1.6 0 3.1-.3 4.4-.8 1.3-.5 2.6-1.4 4-2.6l3.7 4.4c-1.4 1.6-3.1 2.8-5.1 3.6-2 .8-4.4 1.2-7 1.2-3.1 0-5.8-.6-8.2-1.9-2.4-1.3-4.3-3.1-5.6-5.4-1.5-2.5-2.1-5.1-2.1-8.1zm46.3 15.2c3 0 5.7-.6 8.1-1.9 2.4-1.3 4.2-3.1 5.5-5.4 1.3-2.3 2-4.9 2-7.8s-.7-5.5-2-7.8-3.2-4.1-5.5-5.4c-2.4-1.3-5.1-1.9-8.1-1.9s-5.7.6-8.1 1.9c-2.4 1.3-4.2 3.1-5.5 5.4-1.3 2.3-2 4.9-2 7.8s.7 5.5 2 7.8 3.2 4.1 5.5 5.4c2.4 1.3 5.1 1.9 8.1 1.9zm0-5.8c-1.8 0-3.3-.4-4.7-1.2-1.4-.8-2.4-1.9-3.2-3.3-.8-1.4-1.2-3-1.2-4.9 0-1.8.4-3.4 1.2-4.9.8-1.4 1.8-2.5 3.2-3.3 1.4-.8 2.9-1.2 4.7-1.2 1.8 0 3.3.4 4.7 1.2 1.4.8 2.4 1.9 3.2 3.3.8 1.4 1.2 3 1.2 4.9 0 1.8-.4 3.4-1.2 4.9-.8 1.4-1.8 2.5-3.2 3.3-1.3.8-2.9 1.2-4.7 1.2zm27-.4v-23.6h-6.4v29.2h22.8v-5.7h-16.4v.1zm42.4 5.7h6.6l-11.5-29.2h-7.8l-11.5 29.2h6.5l2.5-6.5h12.7l2.5 6.5zm-13.1-12.1l4.3-11.2 4.2 11.2h-8.5zm30.1-2.6c0-2.9.7-5.5 2-7.8s3.2-4.1 5.6-5.4c2.4-1.3 5.1-1.9 8.2-1.9 2.5 0 4.8.4 6.8 1.2 2 .8 3.7 1.9 5.1 3.5l-3.7 4.4c-1.4-1.2-2.7-2-3.9-2.5-1.3-.5-2.7-.7-4.2-.7-1.8 0-3.4.4-4.8 1.2-1.4.8-2.5 1.9-3.3 3.3-.8 1.4-1.2 3-1.2 4.9 0 1.8.4 3.4 1.2 4.9.8 1.4 1.9 2.5 3.3 3.3 1.4.8 3 1.2 4.8 1.2 1.6 0 3.1-.3 4.4-.8 1.3-.5 2.6-1.4 4-2.6l3.7 4.4c-1.4 1.6-3.1 2.8-5.1 3.6-2 .8-4.4 1.2-7 1.2-3.1 0-5.8-.6-8.2-1.9-2.4-1.3-4.3-3.1-5.6-5.4-1.4-2.5-2.1-5.1-2.1-8.1zm46.4 15.2c3 0 5.7-.6 8.1-1.9 2.4-1.3 4.2-3.1 5.5-5.4 1.3-2.3 2-4.9 2-7.8s-.7-5.5-2-7.8-3.2-4.1-5.5-5.4c-2.4-1.3-5.1-1.9-8.1-1.9s-5.7.6-8.1 1.9c-2.4 1.3-4.2 3.1-5.5 5.4-1.3 2.3-2 4.9-2 7.8s.7 5.5 2 7.8 3.2 4.1 5.5 5.4c2.4 1.3 5.1 1.9 8.1 1.9zm0-5.8c-1.8 0-3.3-.4-4.7-1.2-1.4-.8-2.4-1.9-3.2-3.3-.8-1.4-1.2-3-1.2-4.9 0-1.8.4-3.4 1.2-4.9.8-1.4 1.8-2.5 3.2-3.3 1.4-.8 2.9-1.2 4.7-1.2 1.8 0 3.3.4 4.7 1.2 1.4.8 2.4 1.9 3.2 3.3.8 1.4 1.2 3 1.2 4.9 0 1.8-.4 3.4-1.2 4.9-.8 1.4-1.8 2.5-3.2 3.3-1.4.8-2.9 1.2-4.7 1.2zm55.6-24h-8.7l-8.4 19.4-8.5-19.4H446v29.2h6.1v-20.9L461 293h4.3l8.8-20.8v21.2h6.3v-29.3h-.1zm22.6 0h-15v29.2h6.4v-10.7h8.7c2.2 0 4.1-.4 5.6-1.2 1.5-.8 2.7-1.9 3.5-3.3.8-1.4 1.2-3 1.2-4.8 0-1.8-.4-3.3-1.2-4.8-.8-1.4-1.9-2.5-3.5-3.3-1.6-.7-3.5-1.1-5.7-1.1zm-.2 12.9h-8.4v-7.3h8.4c1.3 0 2.3.3 3 .9.7.6 1.1 1.5 1.1 2.7 0 1.2-.4 2.1-1.1 2.7-.7.7-1.7 1-3 1zm33.5 16.4h6.6l-11.5-29.2h-7.8L512 293.4h6.5l2.5-6.5h12.7l2.5 6.5zm-13.1-12.1l4.3-11.2 4.2 11.2h-8.5zm44.3-17.2V284l-13.6-19.9h-7v29.2h6.3v-20.8l14.2 20.8h6.4v-29.2h-6.3zm39.6 0h-6.8l-8 13.8-7.9-13.8h-6.9l11.7 19.9v9.3h6.4v-9.5l11.5-19.7zm-581.1 0H0v5.8h9.7v23.5h6.4v-23.5h9.8v-5.8zm25.9 0v10.6h-15v-10.6h-6.3v29.3h6.3v-13h15v13h6.4v-29.3h-6.4zm19.5 23.6v-6.6h11.6v-5.7H71.3v-5.6h17.3v-5.7H64.9v29.3H89v-5.7H71.3zM258 148c7.1-2.3 14.5-5.9 16.4-8 3.2-3.5-.8-11.7-2.9-14.7-1.5-2.1-4.5-5.7-7.3-14.1-2.9-9.1-5.7-27.5-5.9-28.7-.4-1.9-.5-3.8-1.6-3.9.9-1.3-7.3-23.3-9.7-23.5 1.1-.3-.1-2.7-.9-4.4-1.4-3-6.7-9.6-11.7-16.9-2.2-3.3-5.7-8.2-7.5-12-1.7-3.6-3.2-8.4-3.8-10.5.5-.9.7-1.4.3-2.5-.4-1.2-2.8-3.5-3-3.9-.1-.4-.3-.9.1-1.6.4-.7.1-1.6-.4-2.3-.6-.8-1.8-.7-2.5-.7-.6 0-3.7.7-6.8 1.7-3.1 1-6 2.3-6.5 2.6-.6.4-1.6 1-1.7 2 0 .8.3 1.8 1 2.1.7.3.9.8 1 1.2.1.4-.4 3.7-.1 4.9.3 1.1.7 1.4 1.7 1.8.7 2.1 2.3 6.8 3 10.7.8 4.2.9 10.2 1 14.2.2 8.9-.1 17.2.5 20.5.3 1.8.8 4.4 1.8 4.1-1.8 1.5 4.5 24.2 6 24.7-.9.7.2 2.4 1 4.1.5 1 9.1 17.6 12.1 26.6 2.8 8.4 2.4 13 2.4 15.7 0 3.7 1.7 12.7 6.3 13.7 2.5.8 10.6-.6 17.7-2.9m281.3 6c.2-1.2.7-3.3 1-5.7.3-2.4 1.1-6.3 1.9-8.2.8-1.9 3.3-3.4 3.3-3.4.2.3 1.2 1.6 1.7 2.1s1.1.3 1.2.2c.2-.1.3-.3.3-.6s-.2-.7-.2-.7 6.1-4.8 7.8-6.2c1.7-1.4.2-3.6-.9-5.6-1.2-2-4.7-7-6.4-9.4-1.7-2.4-5.5-7.3-7-9-1.5-1.7-3.2-3.8-5-2.6-1.8 1.2-8.3 5.5-8.3 5.5s-.3-.4-.6-.5c-.3-.1-.5 0-.6.1-.2.1-.5.6-.2 1.2s1.3 2 1.5 2.3c0 0-2.2 1.9-4.2 2.1-2 .2-6.1-.3-8.4-.7-2.3-.4-4.5-.6-5.7-.8-1.2-.2-2.5-.2-4.9 1.5-2.5 1.8-8.6 6.2-11.2 8.1-2.6 1.9-6.5 5.2-8.3 6.8-1.8 1.6-4 4-4.4 4.6-.4.6-.1 1.4 0 1.9s.1 1.7-.8 2c-.7.3-2-.2-2.9-.1-1.1 0-1.8.5-2.7 1.4-.6.7-1.4 3-2.1 4.1-.6 1.1-1.8 2.3-3.3 3.3-1.4 1-3.2 1.9-4.8 2.1-1.6.3-1.7.4-2.3.8-.6.4-1.6 2.3-2.1 3-.7.9-1.9 1.7-2.9 2.1-1.1.4-2.7.7-3.9.7-.9 0-1.6.4-2.3 1-1 .9-1.6 2.9-3.4 3.9-1.8 1-2.8 1.2-4 1.2-1.2 0-2.4.4-3.3 1.4-.9 1-1.9 2.3-2.8 3-1 .7-2.7 1.9-3.8 2.8-1.1.9-3.5 2.6-4 2.8-.5.2-2.6.1-3.5.8-.9.7-1.5 1.9-1.7 2.4-.2.5-.5.9-.8.9-.3 0-1.7-.3-2.7.8-.9 1.1-3.1 4.5-3.5 6.1-.4 1.5.5 5.6 1.9 8.5 1.4 2.9 3.6 6.7 4.6 8.3 1 1.6 2.7 4 3.1 4.6.4.5 2.2 2.9 3.4 4.4 1.2 1.5 4.1 4.7 6.4 6.9 2.3 2.2 5.9 4.4 7.5 4.4 1.6.1 5.5-.9 6.8-1.5 1.3-.6 1.5-2 1.6-2.3.1-.3.6-.4 1.1-.5.5-.1 1.9-.3 2.8-.9.9-.7 1.5-2.7 1.8-3.1.3-.4 2.7-2.1 3.9-2.9 1.2-.8 2.9-2.1 3.8-2.8 1-.7 2.5-1.3 3.7-1.8 1.2-.5 2-1.5 2.4-2.7.3-1.1.9-2 2.4-3.4s3.5-1.3 4.7-2c.8-.4 1.4-1 1.6-1.9.3-1.1 1.1-2.6 1.9-3.5.7-.9 1.9-1.7 2.9-2.1.8-.3 3-.7 3.5-1.1.6-.4.8-.5 1.5-2 .7-1.4 2.1-2.9 3.5-3.9s2.9-1.8 4.1-2.1c1.2-.3 3.7-.3 4.5-.7 1.1-.5 1.7-1.1 2.1-2.1.3-.8.3-2.2.8-2.8.6-.8 1.7-.3 2.1-.1.5.2 1.1.7 1.8.5.7-.2 3.6-1.5 5.7-2.8 2.1-1.2 6.5-4 9.1-5.8 2.6-1.9 8.7-6.3 11.2-8.1 2.5-1.8 2.9-3 3-4.2m-.4 288.5c3.5 6.7 3.2 13.3 3.2 13.3l3.3 2.4s.4-.4.8-.9.7-.8.7-.2c0 .6-.5 1.7-.5 1.7l.8.8.6-.9s4.9 3.4 6 4.3c1.1.9 1.2 2.4.9 3.1-.3.7-1.3 2.5-2.8 4.6-1.5 2.1-3 3.6-3.5 4.1-.6.5-2 .8-3.2.1-1.2-.8-6-4.3-6-4.3l.6-.9-1-.5s-.9.8-1.5 1c-.6.2-.4-.2 0-.7.4-.5.6-1 .6-1l-3.3-2.4s-6.2 2.3-13.6 1c-3.3-.5-6.2-1.1-11.8-5.2l-25.9-18.8s-58.9-42.9-60.8-44.3c-1.9-1.4-2.9-4.4-1.7-8.1 1.2-3.7 5.6-10 6-10.6l.2-.3.2-.3c.4-.5 5-6.6 8.2-9 3.2-2.3 6.3-2.3 8.2-.9 1.9 1.4 60.9 44.2 60.9 44.2l25.9 18.8c5.5 4.3 6.9 7 8.5 9.9M190.8 182.1c-.4-5.2-5.5-7.7-6.4-8.4-2.1-1.5-4.3-.7-7.9-3.2-2.6-1.9-2.5.4-3.8-.6-.7-.5.2-2.2-1.3-3.3-1-.7-14.7-11.6-19.3-14.9-2.3-1.7-2.1.4-3.5-.6s-.3-2.2-1.1-2.8c-2.4-1.8-19.5-14.7-21.7-16.3-3.3-2.4-2.7 0-4.4-1.2-1.9-1.3.2-2.7-2-4.3-2.2-1.7-4.3-3.2-6.3-4.2-7.9-4.2-19.5.5-27.6-5.4-8.5-6.1-5.8-6.6-7.6-7.9-1.1-.8-1.6-.5-3.3-1.8-1.6-1.2-1.5-1.7-2.4-2.4-.8-.6-2.9-.8-4.8-2.2-3-2.2-9.9 7.4-12 10.4-2.1 2.9-9.1 12.5-6.1 14.7 2.1 1.5 2.7 3.2 3.6 3.9.9.7 1.4.4 3 1.5 1.7 1.3 1.8 2 2.7 2.6 1.8 1.3 1.5-1.3 9.9 4.8 8 5.8 7.3 18.4 13.6 24.6 1.6 1.6 3.7 3.1 6 4.7s2.9-.8 4.7.5c1.7 1.2-.6 1.5 2.5 3.8 2.2 1.6 19.8 13.8 22.2 15.6.8.6 1.5-.9 3 .2 1.4 1-.6 1.5 1.6 3.2 4.6 3.3 19.2 13 20.2 13.7 1.4 1 2.7-.4 3.5.2 1.3.9-.7 1.6 1.7 3.4 3.5 2.6 3.4 4.9 5.5 6.5.9.6 4.9 4.7 9.9 3.5 3.9-1 13.1-12.3 16.6-17.2 3.6-4.9 11.6-17.2 11.3-21.1zm187.8-41.8c.2-1.7-.3-3.8-.3-5.5h-.1c-.6.1-.9-.4-.8-.9.1-.5.6-.9 1.1-1.1.3-1.6.8-3.4 1.4-4.9 0-.1.1-.3.3-.7-.5-.1-.8-.6-.5-1.2.2-.6.8-1.1 1.5-1.2.5-1.3 1.1-3 1.9-4.9-.7-.2-1-.9-.7-1.7.3-.8 1.1-1.5 2-1.7.8-2 1.6-4.1 2.4-6.3-.8-.2-1.1-1-.7-2 .4-.9 1.3-1.7 2.2-2 4.8-12.6 10.1-26.4 10.9-28.5 1.4-3.9 1.1-6.3 1-9.1-.3-20.2.7-34.2 2.5-42 .7-2.9 2-9.7 2.5-10 .6-.3 1.6 0 2-1.5.6-1.6-.3-3.7-.2-4.7 0-.4.1-.8.9-1.3.4-.2.7-.5 1-1.3.7-2.2-2.9-3.5-8.9-5.6-6-1.8-9.7-2.9-10.5-.7-.3.8-.1 1.2.1 1.6.4.9.2 1.2 0 1.6-.5.9-2.4 2.1-2.9 3.7-.4 1.4.5 1.8.8 2.4.3.6-2.7 6.9-3.8 9.6-3.1 7.4-10.5 19.3-22.7 35.4-1.6 2.2-3.3 4-4.5 7.9-.6 2.1-4.5 16.4-8 29.5.6.8.9 1.9.6 2.9-.3 1-1 1.5-1.7 1.2-.6 2.3-1.2 4.5-1.7 6.5.6.6.8 1.7.6 2.5-.2.8-.9 1.2-1.5 1-.5 2-1 3.7-1.3 5 .4.5.6 1.2.5 1.8-.2.6-.6.9-1.1.7-.1.4-.2.7-.2.8-.4 1.6-1.1 3.3-1.7 4.8.3.4.4 1 .3 1.5-.2.5-.8.7-1.2.3l-.1-.1c-1 1.3-2.6 2.8-3.5 4.3-1.2 1.9-2.1 5.4-2.3 6.9-.2 1.6-.1 3.8 1.3 5.4 1.4 1.6 5.8 5.8 17.3 9.5 11.4 3.7 17.4 3 19.5 2.5 2.1-.5 3.4-2.2 4.2-3.6.6-1.3 1.9-4.6 2.1-6.8zM356 98.6c1.1.6 1.4 1.9 1.1 3-.3 1.1-1.2 1.7-2.3 1.1-1.1-.6-1.5-1.9-1.1-3.1.3-1.1 1.2-1.6 2.3-1zm-8.7 28.6c-.5-.3-.7-.9-.5-1.5.2-.6.8-.8 1.3-.5.5.3.7.9.5 1.5-.2.5-.8.7-1.3.5zm2.6-7.8c-.6-.3-1-1.2-.8-1.9.2-.7.9-1 1.5-.7.6.3 1 1.2.8 1.9-.2.7-.9 1.1-1.5.7zm2.2-7.6c-.9-.4-1.3-1.6-1-2.5.3-.9 1.2-1.3 2.1-.9.9.5 1.3 1.6 1 2.5-.3 1-1.2 1.4-2.1.9zm5.9 19.8c-.6-.2-.9-.8-.7-1.4.2-.6.8-.9 1.3-.7.6.2.9.8.7 1.3-.1.6-.7 1-1.3.8zm2.5-7.7c-.7-.2-1.1-1-.9-1.7.2-.7 1-1.1 1.7-.9.7.2 1.1 1 .9 1.7-.2.7-1 1.1-1.7.9zm2.4-7.4c-.9-.3-1.4-1.3-1.1-2.2.3-.9 1.3-1.4 2.2-1.1.9.3 1.4 1.3 1.1 2.2-.2.9-1.2 1.4-2.2 1.1zm3-9.1c-1.1-.4-1.7-1.6-1.4-2.7.4-1.1 1.6-1.6 2.7-1.3 1.1.4 1.8 1.5 1.4 2.6-.4 1.1-1.6 1.8-2.7 1.4zm3.4 26.9c-.6-.1-.9-.6-.7-1.2.2-.6.7-1 1.3-.9.6.1.9.6.7 1.2-.2.6-.8 1-1.3.9zm2.5-7.8c-.7-.1-1.1-.8-.8-1.5.3-.7 1-1.2 1.7-1.1.7.1 1.1.8.8 1.5-.2.8-1 1.3-1.7 1.1zm2.6-7.4c-.9-.1-1.5-1-1.1-1.9.3-.9 1.4-1.5 2.3-1.4 1 .1 1.5 1 1.1 1.9-.3.9-1.3 1.5-2.3 1.4zm3.2-9c-1.2-.1-1.6-1.1-1.2-2.2.4-1.1 1.4-1.9 2.7-1.8 1.2.1 1.7 1.1 1.3 2.2-.5 1.1-1.6 1.9-2.8 1.8z"/><path class="st1" d="M59 457.8l.5-.9.7-.6 1.9-1.2.4-.6.8-.8 1.1.1 1 .4.9.2 1.5-.5 2.1-1.4 4.1-3.1 3.1-2.4 1.9-2 3.3-3.5 2.2-3 2.8-4.8 3.1-6 1.7-3.2 2.8-3.7 3.4-4.1 2.3-2.3 2.6-2.2 2.7-1.7 1.7-.5 1.5.2 1 .5 1.7 1 .5-.3-.1-1.5v-1.6l.7-1.5 1.2-1 12-8.7 16.8-12.2 13.2-9.4 1.5-.6 1.3.1-.1-1.5.1-.8.5-1.3 1-1.1 5.7-4.2 1.4-.1 1.7.7 2.7 1.9 4 3.9 3.4 3.6 3 3.8 2.6 3.4 1.9 2.8 3.6 5.7 2.1 3.7 1.7 3.7.9 2.6.2 1.8-.1 1.3-.6.8-5.7 4.1-1.1.5h-1.2l-1.3-.2-1.2-.5-.3 1-.6.9-.9 1-2.2 1.7-14.1 10.2-14.7 10.8-10.5 7.7-1.1.6-1.1.3-.9-.1-1.2-.3-1.5-.6-.4.4.2.7.2 1.2.2 1.2-.3 1.2-.5 1-.9 1-2.9 2.1-3.3 1.9-4 1.9-4.3 1.6-3.6.9-4.2.9-5.8.9-3.8.8-3.8 1.2-1.9.8-5.9 3-3.2 2.1-3.4 2.3-1.8 1.4-1.2 1.1-.4.7-.2.6.2.9.1 1-.3.5-.6.4-1 .2-2.5 1.8-1.5.4-1.3.9-2.3 1.5-.8.6-1.4.2-1.5-.5-2.7-2.7-4.2-5.2-4.3-6.4-1.6-3.1-.1-1.3.5-1.3.9-.9 2.6-2 1-.9zm153.1 123.6s13 4.5 17.1 2.3c0 0 .8-.4 1.5-1.7l.4-.8 1.7-4.9s.5-.7.4-1.4l1.1-3.5s.1-.7.1-1c0 0 .1-.3.2-.4 0 0 .7-.3.8-.8 0 0 .1-.6-.5-1.3 0 0-.8-.8-.8-1.4l.2-1.2s.6-1.8.7-2c0 0 .1-.4.6-.8 0 0 .7-.7 1.2-.9 0 0 1.6-.8 3.3-1.2 0 0 4.5-1.2 6.1-1.8 0 0 2.4-.6 3.5-3.5 0 0 1.8-4.9 2.5-7.6l1.7-8 2.9-13.6s.3-1.1.1-2.5c0 0-.1-1 .1-2.1 0 0 .2-1 .9-2.1 0 0 .5-.7.7-1.7l4.5-20.8s.2-.6 0-1.8c0 0-.2-2 1.1-3.6 0 0 1-1.2 1.4-1.9l15-28.5s.4-.8.5-1.2l2.1-6.7s.6-2.9-1.1-5.2c0 0-2.5-3.5-8.4-6.4 0 0-14.3-7.4-29.6-9.2-.1 0-7-.9-10.6 1.5 0 0-1.5.9-2.2 3l-2 6.2s-.5 1.7-.5 2.3l-4.5 31s-.1.9 0 1.9c0 0 .5 2-1.5 4.2 0 0-.6.6-1 1.5l-8.4 19.1s-.5 1-.5 2.2c0 0 .3 1.4-1.4 3.2 0 0-.9 1-1.5 2.1l-8.9 20.1s-2.2 5.9-2.8 9.1c0 0-.4 1.7 1.3 4.1l4.9 6.5s1.6 1.9 1 3.7c0 0-.5 2-.9 2.7 0 0-.3.6-1.1.8 0 0-1.5.2-1.8 1 0 0-.2.5.2 1.1 0 0 .1.3-.3.7 0 0-.2.5-.3.8l-1.1 3.2s-.4.5-.4.8c0 0-.1.4 0 .7l-1.7 5.2v.4s-.8 2 1 3.8c0-.2 3.1 2.9 13 6.3z"/><path class="st0" d="M337.1 482l6.6 20.4 5.9 18s1.8 6.2 2 6.2c.2 0 .6.2.6.2s.3.5.3.9c-.3.9-.1 1.1.2 1.9.2.7.9 1.7 1.6 2.1.8.4 3.9 1.1 4 1.5.1.4.8 1.3 1.2 2.1.3.8.2 1.1.2 1.1l-.8 1.1c-2.1 3.4-2.3 3.2-1.2 6.7 1 3.5 5 9.6 5 9.6 7.1 11.4 17.7 13.1 17.7 13.1s1.1 2.1.4 2.3c-3.4.7-2.1 3.3-.6 5.8s3.1 8.1 3.1 8.1c3.2 4.1 15.8-.2 15.8-.2s12.7-3.9 12.9-9.1c0 0-2-5.5-2.2-8.4-.3-2.9-.7-5.7-3.9-4.3-.7.2-1-2.1-1-2.1s7.7-7.6 6.6-21c0 0-.4-7.2-1.6-10.7-1.2-3.4-1.3-3.2-5-4.7l-1.3-.5s-.3-.2-.5-1-.1-2-.3-2.4c-.2-.4 2-2.8 2.3-3.6.3-.8.3-2 .1-2.7-.2-.7-.2-1-1-1.6-.2-.3-.3-.9-.3-.9s.2-.3.4-.5c.2-.1-2-6.2-2-6.2l-5.9-18-6.6-20.4-7-22.1-.2-.8s-.1-.3-.5-.3c-.2 0-.3-.1-.3-.1l-.2-.7s.3-.6 0-1.6-1.2-3.6-1.2-3.6-1.2-4.8-7.2-4.9c-6.1-.1-21.8 5.2-21.8 5.2s-15.9 5-20.7 8.6c-4.8 3.7-2.9 8.2-2.9 8.2s.8 2.5 1.1 3.6c.3 1 .9 1.3.9 1.3l.2.7s0 .1-.2.3c-.3.2-.2.5-.2.5l.2.8 7.3 22.1z"/></svg>