<?xml version="1.0" encoding="utf-8"?>
<!-- Generator: Adobe Illustrator 15.1.0, SVG Export Plug-In  -->
<!DOCTYPE svg PUBLIC "-//W3C//DTD SVG 1.1//EN" "http://www.w3.org/Graphics/SVG/1.1/DTD/svg11.dtd" [
	<!ENTITY ns_flows "http://ns.adobe.com/Flows/1.0/">
]>
<svg version="1.1"
	 xmlns="http://www.w3.org/2000/svg" xmlns:xlink="http://www.w3.org/1999/xlink" xmlns:a="http://ns.adobe.com/AdobeSVGViewerExtensions/3.0/"
	 x="0px" y="0px" viewBox="0 0 393 363" overflow="visible" enable-background="new 0 0 393 363"
	 xml:space="preserve">
<defs>
</defs>
<g>
	<defs>
		<rect id="SVGID_3_" y="291.4" width="317.7" height="71.8"/>
	</defs>
	<clipPath id="SVGID_4_">
		<use xlink:href="#SVGID_3_"  overflow="visible"/>
	</clipPath>
	<path clip-path="url(#SVGID_4_)" fill="#42413B" d="M20.9,314.8L20.9,314.8c0-4.6-3-7.6-6.6-7.6s-6.6,2.9-6.6,7.5v0.1
		c0,4.5,3,7.5,6.6,7.5S20.9,319.3,20.9,314.8 M0,314.8L0,314.8c0-9.1,5.9-14.1,12.3-14.1c4.1,0,6.6,1.9,8.4,4v-13.3h7.7v36.9h-7.7
		v-3.9c-1.9,2.5-4.4,4.4-8.4,4.4C6,328.8,0,323.9,0,314.8"/>
	<path clip-path="url(#SVGID_4_)" fill="#42413B" d="M50.1,318.8v-1.4c-1.3-0.6-3-1-4.9-1c-3.3,0-5.3,1.3-5.3,3.7v0.1
		c0,2.1,1.7,3.3,4.2,3.3C47.6,323.5,50.1,321.6,50.1,318.8 M32.4,320.5v-0.1c0-5.9,4.5-8.6,10.9-8.6c2.7,0,4.7,0.5,6.6,1.1v-0.5
		c0-3.2-2-5-5.8-5c-2.9,0-5,0.6-7.5,1.5l-1.9-5.9c3-1.3,5.9-2.2,10.5-2.2c4.2,0,7.2,1.1,9.1,3c2,2,2.9,5,2.9,8.6v15.7h-7.4v-2.9
		c-1.9,2.1-4.4,3.4-8.2,3.4C36.6,328.8,32.4,325.9,32.4,320.5"/>
	<path clip-path="url(#SVGID_4_)" fill="#42413B" d="M61.4,301.2h7.7v3.8c1.8-2.3,4-4.3,7.9-4.3c5.8,0,9.2,3.8,9.2,10.1v17.5h-7.7
		v-15.1c0-3.6-1.7-5.5-4.6-5.5c-2.9,0-4.8,1.9-4.8,5.5v15.1h-7.7V301.2z"/>
	<path clip-path="url(#SVGID_4_)" fill="#42413B" d="M90.1,314.9v-0.1c0-7.7,5.9-14.1,14.2-14.1c5.1,0,8.3,1.7,10.8,4.5l-4.7,5.1
		c-1.7-1.8-3.4-3-6.2-3c-3.8,0-6.6,3.4-6.6,7.4v0.1c0,4.1,2.7,7.5,6.9,7.5c2.6,0,4.3-1.1,6.2-2.9l4.5,4.5c-2.6,2.9-5.7,5-11.1,5
		C96,328.9,90.1,322.7,90.1,314.9"/>
</g>
<path fill="#42413B" d="M118.6,301.2h7.7v27.1h-7.7V301.2z M118.4,291.4h8.1v6.8h-8.1V291.4z"/>
<g>
	<defs>
		<rect id="SVGID_2_" y="291.4" width="317.7" height="71.8"/>
	</defs>
	<clipPath id="SVGID_5_">
		<use xlink:href="#SVGID_2_"  overflow="visible"/>
	</clipPath>
	<path clip-path="url(#SVGID_5_)" fill="#42413B" d="M131.4,301.2h7.7v3.8c1.8-2.3,4-4.3,7.9-4.3c5.8,0,9.2,3.8,9.2,10.1v17.5h-7.7
		v-15.1c0-3.6-1.7-5.5-4.6-5.5c-2.9,0-4.8,1.9-4.8,5.5v15.1h-7.7V301.2z"/>
	<path clip-path="url(#SVGID_5_)" fill="#42413B" d="M180.6,313.5v-0.1c0-3.7-2.9-6.3-6.6-6.3c-3.7,0-6.6,2.6-6.6,6.3v0.1
		c0,3.7,2.8,6.3,6.6,6.3C177.7,319.7,180.6,317.2,180.6,313.5 M161,333.7l2.6-5.8c2.8,1.6,5.6,2.5,9.1,2.5c5.3,0,7.7-2.5,7.7-7.4
		v-1.3c-2.3,2.7-4.8,4.4-8.8,4.4c-6.3,0-12-4.6-12-12.6v-0.1c0-8.1,5.8-12.6,12-12.6c4.2,0,6.7,1.8,8.7,4v-3.5h7.7v21
		c0,4.8-1.2,8.4-3.4,10.7c-2.5,2.5-6.4,3.6-11.7,3.6C168.6,336.5,164.5,335.5,161,333.7"/>
	<path clip-path="url(#SVGID_5_)" fill="#42413B" d="M210.2,301.2h7.7v5.5c1.6-3.7,4.1-6.2,8.6-6v8h-0.4c-5.1,0-8.2,3.1-8.2,9.5v10
		h-7.7V301.2z"/>
	<path clip-path="url(#SVGID_5_)" fill="#42413B" d="M249.7,314.9v-0.1c0-4-2.9-7.5-7.1-7.5c-4.4,0-7,3.4-7,7.4v0.1
		c0,4,2.9,7.5,7.1,7.5C247,322.3,249.7,318.9,249.7,314.9 M227.9,314.9v-0.1c0-7.8,6.3-14.1,14.7-14.1c8.4,0,14.6,6.2,14.6,14v0.1
		c0,7.8-6.3,14.1-14.7,14.1C234.2,328.9,227.9,322.7,227.9,314.9"/>
	<path clip-path="url(#SVGID_5_)" fill="#42413B" d="M278.1,318.8v-1.4c-1.3-0.6-3-1-4.9-1c-3.3,0-5.3,1.3-5.3,3.7v0.1
		c0,2.1,1.7,3.3,4.2,3.3C275.6,323.5,278.1,321.6,278.1,318.8 M260.4,320.5v-0.1c0-5.9,4.5-8.6,10.9-8.6c2.7,0,4.7,0.5,6.6,1.1v-0.5
		c0-3.2-2-5-5.8-5c-2.9,0-5,0.6-7.5,1.5l-1.9-5.9c3-1.3,5.9-2.2,10.5-2.2c4.2,0,7.2,1.1,9.1,3c2,2,2.9,5,2.9,8.6v15.7h-7.4v-2.9
		c-1.9,2.1-4.4,3.4-8.2,3.4C264.6,328.8,260.4,325.9,260.4,320.5"/>
	<path clip-path="url(#SVGID_5_)" fill="#42413B" d="M310.1,314.8L310.1,314.8c0-4.6-3-7.6-6.6-7.6c-3.6,0-6.6,2.9-6.6,7.5v0.1
		c0,4.5,3,7.5,6.6,7.5C307.1,322.3,310.1,319.3,310.1,314.8 M289.2,314.8L289.2,314.8c0-9.1,5.9-14.1,12.3-14.1c4.1,0,6.6,1.9,8.4,4
		v-13.3h7.7v36.9H310v-3.9c-1.9,2.5-4.4,4.4-8.4,4.4C295.2,328.8,289.2,323.9,289.2,314.8"/>
	<path clip-path="url(#SVGID_5_)" fill="#42413B" d="M65.1,351.2c-0.4-0.2-0.9-0.3-1.6-0.3h-3.6v4.7h3.6c0.8,0,1.5-0.2,2-0.5
		c0.5-0.3,0.8-1,0.8-1.8C66.2,352.2,65.9,351.6,65.1,351.2 M58.1,349.4h6c1.2,0,2.2,0.3,2.9,1c0.7,0.7,1.1,1.6,1.1,2.8
		c0,1-0.3,2-1,2.7c-0.7,0.8-1.7,1.2-3,1.2h-4.2v5.7h-1.8V349.4z"/>
	<path clip-path="url(#SVGID_5_)" fill="#42413B" d="M83.1,355.5c0.8,0,1.5-0.2,2-0.5c0.5-0.3,0.7-1,0.7-1.8c0-1-0.3-1.6-1-2
		c-0.4-0.2-0.8-0.3-1.5-0.3H79v4.6H83.1z M77.2,349.4h6.1c1,0,1.8,0.2,2.5,0.4c1.2,0.6,1.9,1.6,1.9,3.2c0,0.8-0.2,1.5-0.5,2
		c-0.3,0.5-0.8,0.9-1.4,1.2c0.5,0.2,0.9,0.5,1.2,0.8c0.3,0.3,0.4,0.9,0.4,1.7l0.1,1.8c0,0.5,0.1,0.9,0.1,1.1
		c0.1,0.4,0.3,0.7,0.6,0.8v0.3h-2.2c-0.1-0.1-0.1-0.3-0.1-0.4c0-0.2-0.1-0.5-0.1-1.1l-0.1-2.2c0-0.9-0.4-1.5-1-1.8
		c-0.3-0.2-0.9-0.2-1.6-0.2h-4v5.8h-1.8V349.4z"/>
	<path clip-path="url(#SVGID_5_)" fill="#42413B" d="M106.6,359.9c0.7-1.2,1.1-2.5,1.1-4c0-1.6-0.4-2.9-1.2-3.8
		c-0.8-1-2-1.4-3.4-1.4c-1.4,0-2.5,0.5-3.4,1.4c-0.9,1-1.3,2.4-1.3,4.2c0,1.5,0.4,2.7,1.1,3.8c0.8,1,2,1.5,3.7,1.5
		C104.7,361.6,105.8,361,106.6,359.9 M108.2,351.3c0.9,1.2,1.3,2.7,1.3,4.6c0,2-0.5,3.7-1.5,5c-1.2,1.6-2.9,2.3-5.1,2.3
		c-2.1,0-3.7-0.7-4.9-2.1c-1.1-1.3-1.6-3-1.6-5c0-1.8,0.5-3.4,1.4-4.7c1.2-1.7,2.9-2.5,5.1-2.5C105.3,349,107,349.8,108.2,351.3"/>
	<path clip-path="url(#SVGID_5_)" fill="#42413B" d="M123.3,361.3c0.6,0,1.1-0.1,1.5-0.2c0.7-0.2,1.3-0.7,1.7-1.4
		c0.4-0.5,0.6-1.2,0.8-2.1c0.1-0.5,0.1-1,0.1-1.4c0-1.7-0.3-3-1-3.9c-0.6-0.9-1.7-1.4-3.1-1.4h-3.2v10.3H123.3z M118.3,349.4h5.4
		c1.8,0,3.2,0.7,4.2,2c0.9,1.2,1.3,2.7,1.3,4.6c0,1.4-0.3,2.7-0.8,3.9c-0.9,2-2.5,3.1-4.8,3.1h-5.4V349.4z"/>
	<path clip-path="url(#SVGID_5_)" fill="#42413B" d="M140.3,349.4v8.3c0,1,0.2,1.8,0.6,2.4c0.5,1,1.5,1.5,2.8,1.5
		c1.6,0,2.6-0.5,3.2-1.6c0.3-0.6,0.5-1.3,0.5-2.3v-8.3h1.8v7.6c0,1.7-0.2,2.9-0.7,3.8c-0.8,1.6-2.4,2.4-4.6,2.4
		c-2.3,0-3.8-0.8-4.6-2.4c-0.4-0.9-0.7-2.2-0.7-3.8v-7.6H140.3z"/>
	<path clip-path="url(#SVGID_5_)" fill="#42413B" d="M168,350.3c0.9,0.9,1.4,1.9,1.5,3.1h-1.8c-0.2-0.9-0.6-1.6-1.2-2.1
		c-0.6-0.5-1.4-0.8-2.5-0.8c-1.3,0-2.4,0.5-3.2,1.4c-0.8,0.9-1.2,2.4-1.2,4.3c0,1.6,0.4,2.9,1.1,3.8c0.7,1,1.8,1.5,3.2,1.5
		c1.3,0,2.3-0.5,3-1.5c0.4-0.5,0.6-1.3,0.8-2.1h1.8c-0.2,1.4-0.7,2.6-1.6,3.6c-1.1,1.2-2.5,1.7-4.3,1.7c-1.5,0-2.8-0.5-3.9-1.4
		c-1.4-1.3-2.1-3.2-2.1-5.8c0-2,0.5-3.6,1.6-4.9c1.1-1.4,2.7-2.1,4.6-2.1C165.7,349,167.1,349.4,168,350.3"/>
</g>
<polygon fill="#42413B" points="188.4,349.4 188.4,351 183.8,351 183.8,362.8 182,362.8 182,351 177.5,351 177.5,349.4 "/>
<rect x="197" y="349.4" fill="#42413B" width="1.8" height="13.5"/>
<g>
	<defs>
		<rect id="SVGID_1_" y="291.4" width="317.7" height="71.8"/>
	</defs>
	<clipPath id="SVGID_6_">
		<use xlink:href="#SVGID_1_"  overflow="visible"/>
	</clipPath>
	<path clip-path="url(#SVGID_6_)" fill="#42413B" d="M217.9,359.9c0.7-1.2,1.1-2.5,1.1-4c0-1.6-0.4-2.9-1.2-3.8
		c-0.8-1-2-1.4-3.4-1.4c-1.4,0-2.5,0.5-3.4,1.4c-0.9,1-1.3,2.4-1.3,4.2c0,1.5,0.4,2.7,1.1,3.8c0.8,1,2,1.5,3.7,1.5
		C216,361.6,217.1,361,217.9,359.9 M219.5,351.3c0.9,1.2,1.3,2.7,1.3,4.6c0,2-0.5,3.7-1.5,5c-1.2,1.6-2.9,2.3-5.1,2.3
		c-2.1,0-3.7-0.7-4.9-2.1c-1.1-1.3-1.6-3-1.6-5c0-1.8,0.5-3.4,1.4-4.7c1.2-1.7,2.9-2.5,5.1-2.5C216.6,349,218.3,349.8,219.5,351.3"
		/>
</g>
<polygon fill="#42413B" points="229.5,349.4 231.7,349.4 238.4,360.2 238.4,349.4 240.1,349.4 240.1,362.8 238.1,362.8 231.3,352 
	231.3,362.8 229.5,362.8 "/>
<path fill="#42413B" d="M250.8,358.5c0,0.8,0.2,1.4,0.5,1.9c0.6,0.9,1.6,1.3,3.1,1.3c0.7,0,1.3-0.1,1.8-0.3c1-0.4,1.6-1.1,1.6-2
	c0-0.7-0.2-1.3-0.7-1.6c-0.4-0.3-1.2-0.6-2.1-0.8l-1.8-0.4c-1.2-0.3-2-0.6-2.5-0.9c-0.8-0.6-1.2-1.4-1.2-2.5c0-1.2,0.4-2.2,1.2-3
	c0.8-0.8,2-1.2,3.5-1.2c1.4,0,2.5,0.3,3.5,1c1,0.7,1.4,1.8,1.4,3.3h-1.7c-0.1-0.7-0.3-1.3-0.6-1.7c-0.5-0.7-1.4-1.1-2.7-1.1
	c-1,0-1.8,0.2-2.2,0.7s-0.7,1-0.7,1.6c0,0.7,0.3,1.1,0.8,1.4c0.3,0.2,1.1,0.4,2.4,0.7l1.8,0.4c0.9,0.2,1.6,0.5,2,0.9
	c0.8,0.6,1.2,1.5,1.2,2.7c0,1.5-0.5,2.6-1.6,3.2c-1.1,0.6-2.3,1-3.7,1c-1.6,0-2.9-0.4-3.8-1.3c-0.9-0.8-1.4-2-1.4-3.5H250.8z"/>
<path fill="#484137" d="M73.5,230.6c-0.1,0-0.2,0.1-0.3,0.2c-0.3,0.3-0.2,0.7,0,1c0.9,0.9,3.8,0.7,4.7,0.6l0.3-0.1
	c13.3-8.9,67.9-10.1,97.3-10.8c4.9-0.1,9.1-0.2,12.5-0.3c4.9-0.2,7.7-0.8,8.2-1.1c0.3-0.2,0.5-0.6,0.3-0.9s-0.6-0.5-0.9-0.3
	c-0.2,0.1-2.7,0.8-7.6,1c-3.3,0.1-7.6,0.2-12.4,0.3c-27.6,0.6-72.9,2-91.4,8.1c-2.6,0.9-4.8,1.8-6.4,2.9c-1.5,0.1-3.1,0-3.4-0.2
	C74,230.6,73.7,230.5,73.5,230.6z"/>
<path fill="#A4AA9D" d="M276.5,245.8c-0.2-5.1-57.3-7.1-127.6-4.3c-70.3,2.8-127.1,9.1-126.9,14.3c0.2,5.1,57.3,7.1,127.6,4.3
	C219.9,257.4,276.7,251,276.5,245.8z"/>
<path fill="#54544D" d="M239.6,243.4c-0.1-3.1-39.9-4-88.9-2.1c-49,1.9-88.6,6-88.5,9c0.1,3.1,39.9,4,88.9,2.1
	C200.1,250.5,239.7,246.4,239.6,243.4z"/>
<path fill="#F7BE27" d="M185.5,129c12,14,198.4,48.1,206.5,40.5S363.7,1.1,348.8,0C323-1.8,188,113.6,185,123.9
	C184.3,126.2,184.4,127.6,185.5,129z"/>
<path fill="#41413A" d="M140.3,100.7c0.9-0.8,3-2.2,5.9-1.5c2.1,0.5,3.8,9.8,2.6,10.3c-2.8,1-7.8,0.3-8.9,0.7
	C138.8,110.4,138.9,101.9,140.3,100.7z"/>
<polygon fill="#5E5E58" points="203.7,209.4 202,211.6 222.7,225.9 224.4,223.7 "/>
<rect x="175.9" y="178.6" transform="matrix(0.5924 -0.8057 0.8057 0.5924 -79.742 219.7188)" fill="#5E5E58" width="2.7" height="20.1"/>
<polygon fill="#5E5E58" points="195.6,210.5 193.1,209.6 179.7,235.2 182.3,236.1 "/>
<polygon fill="#5E5E58" points="210.9,171.6 208.4,170.6 197.8,192.3 200.3,193.2 "/>
<polygon fill="#5E5E58" points="201.7,199.4 202.4,201.9 229.4,195 228.7,192.4 "/>
<polygon fill="#5E5E58" points="160.2,210 160.8,212.6 189.1,205.3 188.5,202.7 "/>
<path fill="#41413A" d="M87.8,116c-1.2-0.3-3.7-0.5-5.9,1.5c-1.6,1.4,1.4,10.5,2.6,10.3c2.9-0.4,7-3.5,8.1-3.7
	C93.7,123.8,89.6,116.4,87.8,116z"/>
<path fill="#484137" d="M216.4,196.9c-2.9-11.5-14.7-18.5-26.3-15.6c-11.5,2.9-18.5,14.7-15.6,26.3s14.7,18.5,26.3,15.6
	C212.4,220.3,219.4,208.5,216.4,196.9z"/>
<path fill="#484137" d="M215.8,201.2c-2.2-8.5-10.8-13.6-19.3-11.4c-8.5,2.2-13.6,10.8-11.4,19.3s10.8,13.6,19.3,11.4
	C212.8,218.4,217.9,209.7,215.8,201.2z"/>
<path fill="#9A978C" d="M207.8,199c-1.8-6.9-8.8-11.1-15.7-9.3s-14.3,5.9-9.3,15.7c3.2,6.3,2.4,12.9,15.7,9.3
	C210.4,211.5,209.6,205.9,207.8,199z"/>
<path fill="#9A978C" d="M230.1,194.6c4.9,19.1-6.7,38.7-25.9,43.6c-19.1,4.9-38.7-6.7-43.6-25.9c-4.9-19.1,6.7-38.7,25.9-43.6
	C205.7,163.9,225.2,175.5,230.1,194.6z M225.3,195.9c-4.2-16.5-21.1-26.5-37.6-22.3c-16.5,4.2-26.5,21.1-22.3,37.6
	c4.2,16.5,21.1,26.5,37.6,22.3C219.5,229.2,229.5,212.4,225.3,195.9z"/>
<rect x="91.5" y="224.4" transform="matrix(0.592 -0.8059 0.8059 0.592 -149.8237 169.5783)" fill="#5E5E58" width="2.1" height="16.8"/>
<rect x="59.4" y="201.1" transform="matrix(0.5928 -0.8053 0.8053 0.5928 -143.7527 133.8452)" fill="#5E5E58" width="2.1" height="16"/>
<rect x="69.9" y="230.4" transform="matrix(0.9141 0.4055 -0.4055 0.9141 102.9848 -8.2627)" fill="#5E5E58" width="2.1" height="17"/>
<rect x="86" y="194.2" transform="matrix(0.9141 0.4055 -0.4055 0.9141 89.4432 -17.9471)" fill="#5E5E58" width="2.1" height="16"/>
<rect x="94.9" y="207" transform="matrix(-0.2505 -0.9681 0.9681 -0.2505 -88.1507 361.7439)" fill="#5E5E58" width="2.1" height="16"/>
<rect x="55.9" y="216.9" transform="matrix(-0.2503 -0.9682 0.9682 -0.2503 -146.5141 336.461)" fill="#5E5E58" width="2.1" height="16.2"/>
<circle fill="#484137" cx="76.9" cy="219.7" r="12.6"/>
<path fill="#5E5E58" d="M83.7,218.1c-1-3.7-1.3-7.4-8.5-5c-3.7,1.2-6,4.7-5,8.5c1,3.7,3.4,8.5,8.5,5
	C81.9,224.4,84.7,221.8,83.7,218.1z"/>
<path fill="#9A978C" d="M105,213.6c4,15.5-5.4,31.3-20.9,35.3c-15.5,4-31.3-5.4-35.3-20.9c-4-15.5,5.4-31.3,20.9-35.3
	C85.3,188.7,101.1,198.1,105,213.6z M100.2,214.8C97,202,83.8,194.2,71,197.5c-12.9,3.3-20.6,16.4-17.4,29.3
	c3.3,12.9,16.4,20.6,29.3,17.4C95.7,240.8,103.5,227.7,100.2,214.8z"/>
<polygon fill="#41413A" points="169.1,138.9 177,136.9 173,121.3 159.1,124.9 "/>
<path fill="#E55046" d="M89.4,199.7c12.2,5.9,89.9-10.6,89.9-27.4c0-11-9.6-47.4-28.6-61.6c-8.7-6.5-57,1.8-69.1,17
	C73,138.6,75.6,193,89.4,199.7z"/>
<rect x="174.4" y="117.9" transform="matrix(-0.9689 0.2474 -0.2474 -0.9689 381.1141 209.1133)" fill="#54544D" width="6" height="21.2"/>
<path fill="#6D6D65" d="M182.3,139.6c0,0,3.5,3.7,5.9,3.1l7.2-1.8l-7.9-31.1l-6.9,1.8c0,0-4.7,2.2-4.2,5L182.3,139.6z"/>
<path fill="#41413A" d="M88.5,161.2c2.4,3.9,20.4,1,19.7-5c-0.4-4-5.7-18.4-8.6-23.5c-1.9-3.3-12.3-1.6-14.3,3.4
	C83.8,139.7,87.9,160.2,88.5,161.2z"/>
<path fill="#C19F67" d="M96.5,139c-0.4-1.6-0.8-3.5-3.5-2.1c-1.4,0.7-2.5,2-2.1,3.5c0.4,1.6,0.7,3.5,3.5,2.1
	C95.9,141.8,96.9,140.5,96.5,139z"/>
<path fill="#BCD2D3" d="M102.3,150.7c-0.8-3.2-2.8-6.5-7.2-4.3c-2.9,1.5-5.1,4-4.3,7.2c0.8,3.2,2.6,6.4,7.2,4.3
	C101,156.5,103.1,153.9,102.3,150.7z"/>
<path fill="#565751" d="M100,151.4c-0.4-1.9-2.3-3-4.2-2.5c-2.7,0.6-3,2.3-2.5,4.2c0.5,1.9,2.3,2.9,4.2,2.5
	C101.2,154.8,100.4,153.2,100,151.4z"/>
</svg>
