<?xml version="1.0" encoding="utf-8"?>
<!-- Generator: Adobe Illustrator 15.1.0, SVG Export Plug-In  -->
<!DOCTYPE svg PUBLIC "-//W3C//DTD SVG 1.1//EN" "http://www.w3.org/Graphics/SVG/1.1/DTD/svg11.dtd" [
	<!ENTITY ns_flows "http://ns.adobe.com/Flows/1.0/">
]>
<svg version="1.1"
	 xmlns="http://www.w3.org/2000/svg" xmlns:xlink="http://www.w3.org/1999/xlink" xmlns:a="http://ns.adobe.com/AdobeSVGViewerExtensions/3.0/"
	 x="0px" y="0px" viewBox="0 0 543 254" overflow="visible" enable-background="new 0 0 543 254"
	 xml:space="preserve">
<defs>
</defs>
<g>
	<defs>
		<rect id="SVGID_3_" x="137.1" width="405.8" height="174.4"/>
	</defs>
	<clipPath id="SVGID_4_">
		<use xlink:href="#SVGID_3_"  overflow="visible"/>
	</clipPath>
	<path clip-path="url(#SVGID_4_)" fill="#F8BE26" d="M225.9,34.6c-2.4,3.8,4.7,31.2,4.7,31.2c-33.3,21-91.6,52.7-93.2,58.2
		c-0.5,1.6-0.4,2.5,0.4,3.5c6.3,7.4,82.7,22.7,120.5,27.2c0,0,0,4.6,4.5,9.4c8.9,7.9,268,14.3,274.1,7.4c6.1-7,9.8-159.9-0.1-169
		C526.9-6.6,290.8,10.8,225.9,34.6"/>
</g>
<g>
	<defs>
		<rect id="SVGID_2_" x="280.3" y="73.3" width="233.7" height="52.8"/>
	</defs>
	<clipPath id="SVGID_5_">
		<use xlink:href="#SVGID_2_"  overflow="visible"/>
	</clipPath>
	<path clip-path="url(#SVGID_5_)" fill="#42413B" d="M295.6,90.6L295.6,90.6c0-3.4-2.2-5.6-4.8-5.6s-4.9,2.2-4.9,5.5v0.1
		c0,3.3,2.2,5.5,4.9,5.5S295.6,93.9,295.6,90.6 M280.3,90.6L280.3,90.6c0-6.7,4.3-10.4,9.1-10.4c3,0,4.9,1.4,6.2,3v-9.8h5.6v27.1
		h-5.6v-2.9c-1.4,1.9-3.3,3.2-6.2,3.2C284.7,100.9,280.3,97.2,280.3,90.6"/>
	<path clip-path="url(#SVGID_5_)" fill="#42413B" d="M317.1,93.5v-1c-1-0.4-2.2-0.7-3.6-0.7c-2.4,0-3.9,1-3.9,2.8v0.1
		c0,1.5,1.3,2.4,3.1,2.4C315.3,97,317.1,95.5,317.1,93.5 M304.1,94.8L304.1,94.8c0-4.4,3.3-6.4,8-6.4c2,0,3.5,0.3,4.9,0.8v-0.3
		c0-2.3-1.4-3.6-4.3-3.6c-2.2,0-3.7,0.4-5.5,1.1l-1.4-4.3c2.2-1,4.3-1.6,7.7-1.6c3.1,0,5.3,0.8,6.7,2.2c1.5,1.5,2.2,3.7,2.2,6.4
		v11.6H317v-2.2c-1.4,1.5-3.3,2.5-6,2.5C307.2,100.9,304.1,98.7,304.1,94.8"/>
	<path clip-path="url(#SVGID_5_)" fill="#42413B" d="M325.5,80.6h5.7v2.8c1.3-1.7,3-3.2,5.8-3.2c4.3,0,6.8,2.8,6.8,7.4v12.9h-5.7
		V89.4c0-2.7-1.3-4.1-3.4-4.1c-2.2,0-3.5,1.4-3.5,4.1v11.1h-5.7V80.6z"/>
	<path clip-path="url(#SVGID_5_)" fill="#42413B" d="M346.5,90.6L346.5,90.6c0-5.8,4.3-10.4,10.4-10.4c3.8,0,6.1,1.3,8,3.3l-3.5,3.7
		c-1.3-1.3-2.5-2.2-4.5-2.2c-2.8,0-4.8,2.5-4.8,5.4v0.1c0,3,2,5.5,5.1,5.5c1.9,0,3.2-0.8,4.6-2.1l3.3,3.3c-1.9,2.1-4.2,3.6-8.1,3.6
		C350.9,100.9,346.5,96.3,346.5,90.6"/>
</g>
<path fill="#42413B" d="M367.5,80.6h5.6v19.9h-5.6V80.6z M367.3,73.3h5.9v5h-5.9V73.3z"/>
<g>
	<defs>
		<rect id="SVGID_1_" x="280.3" y="73.3" width="233.7" height="52.8"/>
	</defs>
	<clipPath id="SVGID_6_">
		<use xlink:href="#SVGID_1_"  overflow="visible"/>
	</clipPath>
	<path clip-path="url(#SVGID_6_)" fill="#42413B" d="M377,80.6h5.6v2.8c1.3-1.7,3-3.2,5.8-3.2c4.3,0,6.8,2.8,6.8,7.4v12.9h-5.6V89.4
		c0-2.7-1.3-4.1-3.4-4.1c-2.2,0-3.5,1.4-3.5,4.1v11.1H377V80.6z"/>
	<path clip-path="url(#SVGID_6_)" fill="#42413B" d="M413.1,89.6L413.1,89.6c0-2.8-2.1-4.7-4.9-4.7c-2.8,0-4.8,1.9-4.8,4.6v0.1
		c0,2.8,2.1,4.6,4.8,4.6C411,94.2,413.1,92.3,413.1,89.6 M398.7,104.4l1.9-4.2c2,1.2,4.1,1.8,6.7,1.8c3.9,0,5.7-1.9,5.7-5.4v-1
		c-1.7,2-3.5,3.2-6.5,3.2c-4.6,0-8.8-3.4-8.8-9.3v-0.1c0-5.9,4.3-9.3,8.8-9.3c3.1,0,4.9,1.3,6.4,3v-2.6h5.7V96
		c0,3.6-0.9,6.2-2.5,7.8c-1.9,1.9-4.7,2.7-8.6,2.7C404.3,106.5,401.3,105.8,398.7,104.4"/>
	<path clip-path="url(#SVGID_6_)" fill="#42413B" d="M434.9,80.6h5.6v4c1.2-2.8,3-4.5,6.4-4.4v5.9h-0.3c-3.8,0-6.1,2.3-6.1,7v7.4
		h-5.6V80.6z"/>
	<path clip-path="url(#SVGID_6_)" fill="#42413B" d="M463.9,90.6L463.9,90.6c0-3-2.1-5.6-5.2-5.6c-3.2,0-5.2,2.5-5.2,5.4v0.1
		c0,2.9,2.1,5.5,5.2,5.5C462,96.1,463.9,93.6,463.9,90.6 M448,90.6L448,90.6c0-5.8,4.6-10.4,10.8-10.4c6.2,0,10.7,4.6,10.7,10.3v0.1
		c0,5.7-4.6,10.4-10.8,10.4C452.5,100.9,448,96.4,448,90.6"/>
	<path clip-path="url(#SVGID_6_)" fill="#42413B" d="M484.8,93.5v-1c-1-0.4-2.2-0.7-3.6-0.7c-2.4,0-3.9,1-3.9,2.8v0.1
		c0,1.5,1.3,2.4,3.1,2.4C483,97,484.8,95.5,484.8,93.5 M471.9,94.8L471.9,94.8c0-4.4,3.3-6.4,8-6.4c2,0,3.5,0.3,4.9,0.8v-0.3
		c0-2.3-1.4-3.6-4.3-3.6c-2.2,0-3.7,0.4-5.5,1.1l-1.4-4.3c2.2-1,4.3-1.6,7.7-1.6c3.1,0,5.3,0.8,6.7,2.2c1.5,1.5,2.2,3.7,2.2,6.4
		v11.6h-5.5v-2.2c-1.4,1.5-3.3,2.5-6,2.5C474.9,100.9,471.9,98.7,471.9,94.8"/>
	<path clip-path="url(#SVGID_6_)" fill="#42413B" d="M508.4,90.6L508.4,90.6c0-3.4-2.2-5.6-4.8-5.6c-2.6,0-4.9,2.2-4.9,5.5v0.1
		c0,3.3,2.2,5.5,4.9,5.5C506.2,96.1,508.4,93.9,508.4,90.6 M493,90.6L493,90.6c0-6.7,4.3-10.4,9.1-10.4c3,0,4.9,1.4,6.2,3v-9.8h5.6
		v27.1h-5.6v-2.9c-1.4,1.9-3.3,3.2-6.2,3.2C497.5,100.9,493,97.2,493,90.6"/>
	<path clip-path="url(#SVGID_6_)" fill="#42413B" d="M328.2,117.3c-0.3-0.1-0.7-0.2-1.2-0.2h-2.6v3.4h2.6c0.6,0,1.1-0.1,1.5-0.4
		c0.4-0.3,0.6-0.7,0.6-1.4C329,118.1,328.7,117.6,328.2,117.3 M323,116h4.4c0.9,0,1.6,0.2,2.1,0.7c0.5,0.5,0.8,1.2,0.8,2.1
		c0,0.8-0.2,1.4-0.7,2c-0.5,0.6-1.2,0.9-2.2,0.9h-3.1v4.2H323V116z"/>
	<path clip-path="url(#SVGID_6_)" fill="#42413B" d="M341.4,120.5c0.6,0,1.1-0.1,1.5-0.4c0.4-0.3,0.5-0.7,0.5-1.4
		c0-0.7-0.2-1.2-0.7-1.4c-0.3-0.1-0.6-0.2-1.1-0.2h-3.2v3.4H341.4z M337.1,116h4.5c0.7,0,1.4,0.1,1.8,0.3c0.9,0.4,1.4,1.2,1.4,2.3
		c0,0.6-0.1,1.1-0.4,1.5c-0.2,0.4-0.6,0.7-1,0.9c0.4,0.2,0.7,0.4,0.9,0.6s0.3,0.7,0.3,1.2l0,1.3c0,0.4,0,0.7,0.1,0.8
		c0.1,0.3,0.2,0.5,0.4,0.6v0.2h-1.6c0-0.1-0.1-0.2-0.1-0.3c0-0.1,0-0.4-0.1-0.8l-0.1-1.7c0-0.6-0.3-1.1-0.7-1.3
		c-0.2-0.1-0.6-0.2-1.2-0.2h-3v4.2h-1.3V116z"/>
	<path clip-path="url(#SVGID_6_)" fill="#42413B" d="M358.7,123.7c0.5-0.8,0.8-1.8,0.8-2.9c0-1.2-0.3-2.1-0.9-2.8
		c-0.6-0.7-1.4-1.1-2.5-1.1c-1,0-1.9,0.4-2.5,1.1c-0.6,0.7-1,1.7-1,3.1c0,1.1,0.3,2,0.8,2.8s1.5,1.1,2.7,1.1
		C357.3,125,358.1,124.5,358.7,123.7 M359.8,117.4c0.7,0.9,1,2,1,3.4c0,1.5-0.4,2.7-1.1,3.7c-0.9,1.2-2.1,1.7-3.8,1.7
		c-1.5,0-2.7-0.5-3.6-1.5c-0.8-1-1.2-2.2-1.2-3.7c0-1.3,0.3-2.5,1-3.4c0.9-1.2,2.1-1.8,3.8-1.8C357.7,115.7,359,116.3,359.8,117.4"
		/>
	<path clip-path="url(#SVGID_6_)" fill="#42413B" d="M371,124.7c0.4,0,0.8,0,1.1-0.1c0.5-0.2,0.9-0.5,1.3-1c0.3-0.4,0.4-0.9,0.6-1.5
		c0.1-0.4,0.1-0.7,0.1-1c0-1.2-0.2-2.2-0.7-2.9c-0.5-0.7-1.2-1-2.3-1h-2.3v7.6H371z M367.3,116h4c1.3,0,2.4,0.5,3.1,1.4
		c0.7,0.9,1,2,1,3.3c0,1.1-0.2,2-0.6,2.9c-0.7,1.5-1.9,2.2-3.5,2.2h-3.9V116z"/>
	<path clip-path="url(#SVGID_6_)" fill="#42413B" d="M383.5,116v6.1c0,0.7,0.1,1.3,0.4,1.8c0.4,0.7,1.1,1.1,2,1.1
		c1.1,0,1.9-0.4,2.3-1.2c0.2-0.4,0.3-1,0.3-1.7V116h1.4v5.6c0,1.2-0.2,2.2-0.5,2.8c-0.6,1.2-1.7,1.8-3.4,1.8c-1.7,0-2.8-0.6-3.4-1.8
		c-0.3-0.7-0.5-1.6-0.5-2.8V116H383.5z"/>
	<path clip-path="url(#SVGID_6_)" fill="#42413B" d="M403.8,116.7c0.7,0.7,1.1,1.4,1.1,2.3h-1.3c-0.1-0.6-0.4-1.1-0.9-1.5
		c-0.4-0.4-1-0.6-1.8-0.6c-1,0-1.7,0.3-2.3,1c-0.6,0.7-0.9,1.7-0.9,3.2c0,1.2,0.3,2.1,0.8,2.8c0.5,0.7,1.3,1.1,2.4,1.1
		c1,0,1.7-0.4,2.2-1.1c0.3-0.4,0.5-0.9,0.6-1.6h1.3c-0.1,1-0.5,1.9-1.1,2.6c-0.8,0.8-1.8,1.3-3.1,1.3c-1.1,0-2.1-0.3-2.9-1
		c-1-0.9-1.5-2.3-1.5-4.3c0-1.5,0.4-2.7,1.1-3.6c0.8-1,2-1.5,3.4-1.5C402.2,115.7,403.2,116,403.8,116.7"/>
</g>
<polygon fill="#42413B" points="418.8,116 418.8,117.1 415.5,117.1 415.5,125.9 414.1,125.9 414.1,117.1 410.8,117.1 410.8,116 "/>
<rect x="425.2" y="116" fill="#42413B" width="1.4" height="9.9"/>
<path fill="#42413B" d="M440.5,123.7c0.5-0.8,0.8-1.8,0.8-2.9c0-1.2-0.3-2.1-0.9-2.8c-0.6-0.7-1.4-1.1-2.5-1.1c-1,0-1.9,0.4-2.5,1.1
	c-0.6,0.7-1,1.7-1,3.1c0,1.1,0.3,2,0.8,2.8c0.6,0.8,1.5,1.1,2.7,1.1C439.2,125,440,124.5,440.5,123.7 M441.7,117.4
	c0.7,0.9,1,2,1,3.4c0,1.5-0.4,2.7-1.1,3.7c-0.9,1.2-2.1,1.7-3.8,1.7c-1.5,0-2.7-0.5-3.6-1.5c-0.8-1-1.2-2.2-1.2-3.7
	c0-1.3,0.3-2.5,1-3.4c0.9-1.2,2.1-1.8,3.8-1.8C439.6,115.7,440.9,116.3,441.7,117.4"/>
<polygon fill="#42413B" points="449.1,116 450.7,116 455.7,124 455.7,116 456.9,116 456.9,125.9 455.4,125.9 450.4,117.9 
	450.4,125.9 449.1,125.9 "/>
<path fill="#42413B" d="M464.8,122.7c0,0.6,0.2,1,0.4,1.4c0.4,0.7,1.2,1,2.3,1c0.5,0,0.9-0.1,1.3-0.2c0.8-0.3,1.2-0.8,1.2-1.5
	c0-0.5-0.2-0.9-0.5-1.2c-0.3-0.2-0.8-0.4-1.6-0.6l-1.3-0.3c-0.8-0.2-1.4-0.4-1.8-0.7c-0.6-0.4-0.9-1-0.9-1.9c0-0.9,0.3-1.6,0.9-2.2
	c0.6-0.6,1.4-0.9,2.5-0.9c1,0,1.9,0.2,2.6,0.8c0.7,0.5,1.1,1.3,1.1,2.4h-1.3c-0.1-0.5-0.2-0.9-0.4-1.2c-0.4-0.5-1.1-0.8-2-0.8
	c-0.8,0-1.3,0.2-1.6,0.5c-0.3,0.3-0.5,0.7-0.5,1.2c0,0.5,0.2,0.8,0.6,1.1c0.3,0.1,0.8,0.3,1.7,0.5l1.3,0.3c0.6,0.2,1.1,0.4,1.5,0.6
	c0.6,0.5,0.9,1.1,0.9,2c0,1.1-0.4,1.9-1.2,2.4c-0.8,0.5-1.7,0.7-2.7,0.7c-1.2,0-2.1-0.3-2.8-0.9c-0.7-0.6-1-1.5-1-2.5H464.8z"/>
<path fill="#484137" d="M25.6,231.4c-0.1,0-0.2,0.1-0.3,0.2c-0.3,0.3-0.2,0.7,0,1c0.9,0.9,3.8,0.7,4.7,0.6l0.3-0.1
	c13.3-8.9,67.9-10.1,97.3-10.8c4.9-0.1,9.1-0.2,12.5-0.3c4.9-0.2,7.7-0.8,8.2-1.1c0.3-0.2,0.5-0.6,0.3-0.9s-0.6-0.5-0.9-0.3
	c-0.2,0.1-2.7,0.8-7.6,1c-3.3,0.1-7.6,0.2-12.4,0.3c-27.6,0.6-72.9,2-91.4,8.1c-2.6,0.9-4.8,1.8-6.4,2.9c-1.5,0.1-3.1,0-3.4-0.2
	C26.1,231.4,25.8,231.3,25.6,231.4z"/>
<path fill="#54544D" d="M191.7,244.2c-0.1-3.1-39.9-4-88.9-2.1c-49,1.9-88.6,6-88.5,9c0.1,3.1,39.9,4,88.9,2.1
	C152.2,251.3,191.8,247.2,191.7,244.2z"/>
<path fill="#41413A" d="M92.4,101.5c0.9-0.8,3-2.2,5.9-1.5c2.1,0.5,3.8,9.8,2.6,10.3c-2.8,1-7.8,0.3-8.9,0.7
	C90.9,111.2,90.9,102.7,92.4,101.5z"/>
<polygon fill="#5E5E58" points="155.7,210.3 154.1,212.4 174.8,226.7 176.5,224.6 "/>
<rect x="128" y="179.4" transform="matrix(0.5923 -0.8057 0.8057 0.5923 -99.9186 181.4737)" fill="#5E5E58" width="2.7" height="20.1"/>
<polygon fill="#5E5E58" points="147.7,211.3 145.2,210.4 131.8,236.1 134.4,237 "/>
<polygon fill="#5E5E58" points="163,172.4 160.5,171.4 149.9,193.1 152.4,194 "/>
<polygon fill="#5E5E58" points="153.8,200.2 154.5,202.7 181.5,195.8 180.8,193.2 "/>
<polygon fill="#5E5E58" points="112.3,210.8 112.9,213.4 141.2,206.1 140.6,203.6 "/>
<path fill="#41413A" d="M39.9,116.8c-1.2-0.3-3.7-0.5-5.9,1.5c-1.6,1.4,1.4,10.5,2.6,10.3c2.9-0.5,7-3.5,8.1-3.7
	C45.8,124.6,41.7,117.2,39.9,116.8z"/>
<path fill="#484137" d="M168.5,197.7c-2.9-11.5-14.7-18.5-26.3-15.6c-11.5,2.9-18.5,14.7-15.6,26.3s14.7,18.5,26.3,15.6
	C164.5,221.1,171.4,209.3,168.5,197.7z"/>
<path fill="#484137" d="M167.9,202c-2.2-8.5-10.8-13.6-19.3-11.4c-8.5,2.2-13.6,10.8-11.4,19.3s10.8,13.6,19.3,11.4
	C164.9,219.2,170,210.5,167.9,202z"/>
<path fill="#9A978C" d="M159.9,199.8c-1.8-6.9-8.8-11.1-15.7-9.3s-14.3,5.9-9.3,15.7c3.2,6.3,2.4,12.9,15.7,9.3
	C162.5,212.3,161.7,206.7,159.9,199.8z"/>
<path fill="#9A978C" d="M182.2,195.4c4.9,19.1-6.7,38.7-25.9,43.6c-19.1,4.9-38.7-6.7-43.6-25.9c-4.9-19.1,6.7-38.7,25.9-43.6
	C157.8,164.7,177.3,176.3,182.2,195.4z M177.4,196.7c-4.2-16.5-21.1-26.5-37.6-22.3c-16.5,4.2-26.5,21.1-22.3,37.6
	c4.2,16.5,21.1,26.5,37.6,22.3C171.6,230,181.6,213.2,177.4,196.7z"/>
<rect x="43.6" y="225.2" transform="matrix(0.592 -0.8059 0.8059 0.592 -170.0177 131.2957)" fill="#5E5E58" width="2.1" height="16.8"/>
<rect x="11.5" y="201.9" transform="matrix(0.5928 -0.8053 0.8053 0.5928 -163.9069 95.5907)" fill="#5E5E58" width="2.1" height="16"/>
<rect x="22" y="231.2" transform="matrix(0.9141 0.4055 -0.4055 0.9141 99.1962 11.2307)" fill="#5E5E58" width="2.1" height="17"/>
<rect x="38.1" y="195" transform="matrix(0.9141 0.4055 -0.4055 0.9141 85.6545 1.5463)" fill="#5E5E58" width="2.1" height="16"/>
<rect x="47" y="207.8" transform="matrix(-0.2505 -0.9681 0.9681 -0.2505 -148.8396 316.3693)" fill="#5E5E58" width="2.1" height="16"/>
<rect x="8" y="217.7" transform="matrix(-0.2503 -0.9682 0.9682 -0.2503 -207.1923 291.0834)" fill="#5E5E58" width="2.1" height="16.2"/>
<circle fill="#484137" cx="29" cy="220.5" r="12.6"/>
<path fill="#5E5E58" d="M35.8,218.9c-1-3.7-1.3-7.4-8.5-5c-3.7,1.2-6,4.7-5,8.5c1,3.7,3.4,8.5,8.5,5C34,225.2,36.8,222.6,35.8,218.9
	z"/>
<path fill="#9A978C" d="M57.1,214.4c4,15.5-5.4,31.3-20.9,35.3c-15.5,4-31.3-5.4-35.3-20.9c-4-15.5,5.4-31.3,20.9-35.3
	C37.3,189.5,53.2,198.9,57.1,214.4z M52.3,215.6c-3.3-12.9-16.4-20.6-29.3-17.4c-12.9,3.3-20.6,16.4-17.4,29.3
	C9,240.4,22.1,248.2,35,244.9C47.8,241.6,55.6,228.5,52.3,215.6z"/>
<polygon fill="#41413A" points="121.2,139.8 129.1,137.7 125.1,122.1 111.2,125.7 "/>
<path fill="#E55046" d="M41.5,200.5c12.2,5.9,89.9-10.6,89.9-27.4c0-11-9.6-47.4-28.6-61.6c-8.7-6.5-57,1.8-69.1,17
	C25.1,139.4,27.7,193.8,41.5,200.5z"/>
<rect x="126.5" y="118.7" transform="matrix(-0.9689 0.2473 -0.2473 -0.9689 286.9792 222.5595)" fill="#54544D" width="6" height="21.2"/>
<path fill="#6D6D65" d="M134.4,140.4c0,0,3.5,3.7,5.9,3.1l7.2-1.8l-7.9-31.1l-6.9,1.8c0,0-4.7,2.2-4.2,5L134.4,140.4z"/>
<path fill="#41413A" d="M40.6,162c2.4,3.9,20.4,1,19.7-5c-0.4-4-5.7-18.4-8.6-23.5c-1.9-3.3-12.3-1.6-14.3,3.4
	C35.9,140.5,40,161,40.6,162z"/>
<path fill="#C19F67" d="M48.6,139.8c-0.4-1.6-0.8-3.5-3.5-2.1c-1.4,0.7-2.5,2-2.1,3.5c0.4,1.6,0.7,3.5,3.5,2.1
	C48,142.6,49,141.3,48.6,139.8z"/>
<path fill="#BCD2D3" d="M54.4,151.5c-0.8-3.2-2.8-6.5-7.2-4.3c-2.9,1.5-5.1,4-4.3,7.2c0.8,3.2,2.6,6.4,7.2,4.3
	C53.1,157.3,55.2,154.7,54.4,151.5z"/>
<path fill="#565751" d="M52,152.2c-0.4-1.9-2.3-3-4.2-2.5c-2.7,0.6-3,2.3-2.5,4.2s2.3,2.9,4.2,2.5C53.3,155.6,52.5,154,52,152.2z"/>
</svg>
